<?xml version="1.0" encoding="UTF-8"?>
<svg width="80px" height="10px" viewBox="0 0 80 10" version="1.1" xmlns="http://www.w3.org/2000/svg" xmlns:xlink="http://www.w3.org/1999/xlink">
    <title>Shape</title>
    <g id="Work-Order-Schedule" stroke="none" stroke-width="1" fill="none" fill-rule="evenodd">
        <g id="Work-Order-Schedule---Default" transform="translate(-101, -20)" fill="#3E40DB">
            <g id="Group-3" transform="translate(101, 20)">
                <path d="M1.90885908,5.78796562 L1.90885908,9.87106017 L0,9.87106017 L0,0.0429799629 L0.204000171,0.0429799629 L5.20200528,4.65616048 C5.68286291,5.10028652 6.36772078,5.98853866 6.36772078,5.98853866 C6.36772078,5.98853866 6.23657778,4.88538683 6.23657778,4.21203438 L6.23657778,0.128939828 L8.14543685,0.128939828 L8.14543685,9.9570201 L7.94143662,9.9570201 L2.94343157,5.34383952 C2.44841299,4.88576672 1.76427941,4.0129093 1.76314603,4.01146315 C1.76340841,4.01340693 1.90885908,5.08659557 1.90885908,5.78796562 Z M10.4772643,9.87106017 L14.8341259,0.0429799629 L15.0089832,0.0429799629 L19.5407019,9.87106017 L17.3987,9.87106017 L16.9324138,8.76790833 L12.9106953,8.76790833 L12.4444092,9.87106017 L10.4772643,9.87106017 Z M14.3095539,5.40114614 L12.9106953,8.76790833 L16.9324138,8.76790833 L15.4898409,5.40114614 C15.198488,4.71364642 14.8925713,3.65384817 14.8924117,3.65329534 C14.8922467,3.65389552 14.6009003,4.71366181 14.3095539,5.40114614 Z M25.792248,10 C22.936245,10 20.6630997,7.87965619 20.6630997,5 C20.6630997,2.12034381 22.936245,0 25.792248,0 C28.648251,0 30.9213957,2.12034381 30.9213957,5 C30.9213957,7.87965619 28.648251,10 25.792248,10 Z M25.792248,8.20916906 C27.5991067,8.20916906 28.8231084,6.81948425 28.8231084,5 C28.8231084,3.18051575 27.5991067,1.79083094 25.792248,1.79083094 C23.9853886,1.79083094 22.7613876,3.18051575 22.7613876,5 C22.7613876,6.81948425 23.9853886,8.20916906 25.792248,8.20916906 Z M33.967224,9.87106017 L33.967224,0.128939828 L35.0163682,0.128939828 L35.0163682,8.95415472 L39.6938017,8.95415472 L39.6938017,9.87106017 L33.967224,9.87106017 Z M46.4990621,9.98567335 C43.6867736,9.98567335 41.4136283,7.93696275 41.4136283,5 C41.4136283,2.06303725 43.6867736,0.0143266543 46.4990621,0.0143266543 C49.3259223,0.0143266543 51.599067,2.06303725 51.599067,5 C51.599067,7.93696275 49.3259223,9.98567335 46.4990621,9.98567335 Z M46.4990621,9.0544413 C48.8159212,9.0544413 50.5062088,7.32091691 50.5062088,5 C50.5062088,2.67908309 48.8159212,0.945558762 46.4990621,0.945558762 C44.196774,0.945558762 42.5064864,2.67908309 42.5064864,5 C42.5064864,7.32091691 44.196774,9.0544413 46.4990621,9.0544413 Z M59.3514715,9.98567335 C56.3934684,9.98567335 54.1640376,7.93696275 54.1640376,5 C54.1640376,2.06303725 56.3788973,0.0143266543 59.2640431,0.0143266543 C60.6920443,0.0143266543 61.9014743,0.415472794 62.7174749,1.27507163 L62.0034743,1.97707739 C61.362331,1.31805159 60.4880442,0.945558762 59.2640431,0.945558762 C56.9326123,0.945558762 55.2568958,2.67908309 55.2568958,5 C55.2568958,7.32091691 56.9471833,9.0544413 59.3514715,9.0544413 C60.706616,9.0544413 61.6683313,8.65329516 62.2803318,8.16618915 L62.2803318,6.16045846 L59.3369004,6.16045846 L59.3369004,5.243553 L63.2711899,5.243553 L63.2711899,8.6389685 C62.5426176,9.3409742 61.2166165,9.98567335 59.3514715,9.98567335 Z M66.5938756,9.87106017 L66.5938756,0.128939828 L67.657591,0.128939828 L67.657591,9.87106017 L66.5938756,9.87106017 Z M75.919996,9.98567335 C73.1077075,9.98567335 70.8345622,7.93696275 70.8345622,5 C70.8345622,2.06303725 73.1077075,0.0143266543 75.919996,0.0143266543 C77.6685691,0.0143266543 79.0091419,0.659025796 79.8542854,1.90544412 L79.0528558,2.47851005 C78.4117125,1.54727794 77.3479972,0.945558762 75.919996,0.945558762 C73.6031362,0.945558762 71.9274203,2.67908309 71.9274203,5 C71.9274203,7.32091691 73.6031362,9.0544413 75.919996,9.0544413 C77.3625689,9.0544413 78.4699981,8.4383954 79.1839993,7.42120343 L80,7.97994271 C79.1257131,9.24068768 77.6977119,9.98567335 75.919996,9.98567335 Z" id="Shape" fill-rule="nonzero"></path>
            </g>
        </g>
    </g>
</svg>